<mxfile host="app.diagrams.net" agent="Mozilla/5.0 (Windows NT 10.0; Win64; x64) AppleWebKit/537.36 (KHTML, like Gecko) Chrome/130.0.0.0 Safari/537.36" version="24.8.2">
  <diagram name="Page-1" id="b5b7bab2-c9e2-2cf4-8b2a-24fd1a2a6d21">
    <mxGraphModel dx="700" dy="348" grid="1" gridSize="10" guides="1" tooltips="1" connect="1" arrows="1" fold="1" page="1" pageScale="1" pageWidth="827" pageHeight="1169" background="none" math="0" shadow="0">
      <root>
        <mxCell id="0" />
        <mxCell id="1" parent="0" />
        <mxCell id="e_KOng_yEGKorxPS2da1-5" value="" style="html=1;dropTarget=0;whiteSpace=wrap;" vertex="1" parent="1">
          <mxGeometry x="40" y="40" width="440" height="670" as="geometry" />
        </mxCell>
        <mxCell id="e_KOng_yEGKorxPS2da1-6" value="" style="shape=module;jettyWidth=8;jettyHeight=4;" vertex="1" parent="e_KOng_yEGKorxPS2da1-5">
          <mxGeometry x="1" width="20" height="20" relative="1" as="geometry">
            <mxPoint x="-27" y="7" as="offset" />
          </mxGeometry>
        </mxCell>
        <mxCell id="e_KOng_yEGKorxPS2da1-7" value="Springboot Backend" style="text;html=1;align=center;verticalAlign=middle;whiteSpace=wrap;rounded=0;" vertex="1" parent="1">
          <mxGeometry x="40" y="40" width="130" height="30" as="geometry" />
        </mxCell>
        <mxCell id="e_KOng_yEGKorxPS2da1-28" value="" style="group" vertex="1" connectable="0" parent="1">
          <mxGeometry x="72" y="140" width="180" height="40" as="geometry" />
        </mxCell>
        <mxCell id="e_KOng_yEGKorxPS2da1-24" value="" style="html=1;dropTarget=0;whiteSpace=wrap;" vertex="1" parent="e_KOng_yEGKorxPS2da1-28">
          <mxGeometry width="180" height="40" as="geometry" />
        </mxCell>
        <mxCell id="e_KOng_yEGKorxPS2da1-25" value="" style="shape=module;jettyWidth=8;jettyHeight=4;" vertex="1" parent="e_KOng_yEGKorxPS2da1-24">
          <mxGeometry x="1" width="20" height="20" relative="1" as="geometry">
            <mxPoint x="-27" y="7" as="offset" />
          </mxGeometry>
        </mxCell>
        <mxCell id="e_KOng_yEGKorxPS2da1-27" value="&lt;span style=&quot;text-align: left;&quot;&gt;UserService&lt;/span&gt;" style="text;html=1;align=center;verticalAlign=middle;whiteSpace=wrap;rounded=0;" vertex="1" parent="e_KOng_yEGKorxPS2da1-28">
          <mxGeometry width="130" height="30" as="geometry" />
        </mxCell>
        <mxCell id="e_KOng_yEGKorxPS2da1-29" value="" style="group" vertex="1" connectable="0" parent="1">
          <mxGeometry x="200" y="80" width="180" height="40" as="geometry" />
        </mxCell>
        <mxCell id="e_KOng_yEGKorxPS2da1-22" value="" style="html=1;dropTarget=0;whiteSpace=wrap;" vertex="1" parent="e_KOng_yEGKorxPS2da1-29">
          <mxGeometry width="180" height="40" as="geometry" />
        </mxCell>
        <mxCell id="e_KOng_yEGKorxPS2da1-23" value="" style="shape=module;jettyWidth=8;jettyHeight=4;" vertex="1" parent="e_KOng_yEGKorxPS2da1-22">
          <mxGeometry x="1" width="20" height="20" relative="1" as="geometry">
            <mxPoint x="-27" y="7" as="offset" />
          </mxGeometry>
        </mxCell>
        <mxCell id="e_KOng_yEGKorxPS2da1-26" value="&lt;span style=&quot;text-align: left;&quot;&gt;UserManagementAPI&lt;/span&gt;&lt;div&gt;&lt;span style=&quot;text-align: left;&quot;&gt;(REST)&lt;/span&gt;&lt;/div&gt;" style="text;html=1;align=center;verticalAlign=middle;whiteSpace=wrap;rounded=0;" vertex="1" parent="e_KOng_yEGKorxPS2da1-29">
          <mxGeometry x="10" width="120" height="30" as="geometry" />
        </mxCell>
        <mxCell id="e_KOng_yEGKorxPS2da1-32" value="" style="ellipse;whiteSpace=wrap;html=1;align=center;aspect=fixed;fillColor=none;strokeColor=none;resizable=0;perimeter=centerPerimeter;rotatable=0;allowArrows=0;points=[];outlineConnect=1;" vertex="1" parent="1">
          <mxGeometry x="465" y="290" width="10" height="10" as="geometry" />
        </mxCell>
        <mxCell id="e_KOng_yEGKorxPS2da1-34" value="" style="rounded=0;orthogonalLoop=1;jettySize=auto;html=1;endArrow=halfCircle;endFill=0;endSize=6;strokeWidth=1;sketch=0;exitX=0;exitY=0.25;exitDx=0;exitDy=0;" edge="1" target="e_KOng_yEGKorxPS2da1-36" parent="1" source="e_KOng_yEGKorxPS2da1-22">
          <mxGeometry relative="1" as="geometry">
            <mxPoint x="370" y="245" as="sourcePoint" />
            <Array as="points">
              <mxPoint x="170" y="90" />
            </Array>
          </mxGeometry>
        </mxCell>
        <mxCell id="e_KOng_yEGKorxPS2da1-35" value="" style="rounded=0;orthogonalLoop=1;jettySize=auto;html=1;endArrow=oval;endFill=0;sketch=0;sourcePerimeterSpacing=0;targetPerimeterSpacing=0;endSize=10;exitX=0.75;exitY=0;exitDx=0;exitDy=0;entryX=0.58;entryY=1.36;entryDx=0;entryDy=0;entryPerimeter=0;" edge="1" target="e_KOng_yEGKorxPS2da1-36" parent="1" source="e_KOng_yEGKorxPS2da1-27">
          <mxGeometry relative="1" as="geometry">
            <mxPoint x="330" y="245" as="sourcePoint" />
            <mxPoint x="200" y="110" as="targetPoint" />
          </mxGeometry>
        </mxCell>
        <mxCell id="e_KOng_yEGKorxPS2da1-36" value="" style="ellipse;whiteSpace=wrap;html=1;align=center;aspect=fixed;fillColor=none;strokeColor=none;resizable=0;perimeter=centerPerimeter;rotatable=0;allowArrows=0;points=[];outlineConnect=1;" vertex="1" parent="1">
          <mxGeometry x="165" y="110" width="10" height="10" as="geometry" />
        </mxCell>
        <mxCell id="e_KOng_yEGKorxPS2da1-40" value="" style="group" vertex="1" connectable="0" parent="1">
          <mxGeometry x="91" y="530" width="130" height="99.25" as="geometry" />
        </mxCell>
        <mxCell id="e_KOng_yEGKorxPS2da1-14" value="&lt;div style=&quot;text-align: left;&quot;&gt;&lt;span style=&quot;background-color: initial;&quot;&gt;&amp;nbsp; &amp;nbsp; &amp;nbsp;&lt;/span&gt;&lt;/div&gt;&lt;div style=&quot;text-align: left;&quot;&gt;&lt;span style=&quot;&quot;&gt;UserRepository&lt;/span&gt;&lt;/div&gt;&lt;div style=&quot;text-align: left;&quot;&gt;&lt;span style=&quot;&quot;&gt;SpielRepository&lt;/span&gt;&lt;/div&gt;&lt;div style=&quot;text-align: left;&quot;&gt;&lt;span style=&quot;&quot;&gt;SpielstandRepository&lt;br&gt;&lt;/span&gt;&lt;/div&gt;" style="html=1;dropTarget=0;whiteSpace=wrap;" vertex="1" parent="e_KOng_yEGKorxPS2da1-40">
          <mxGeometry width="130" height="80" as="geometry" />
        </mxCell>
        <mxCell id="e_KOng_yEGKorxPS2da1-15" value="" style="shape=module;jettyWidth=8;jettyHeight=4;" vertex="1" parent="e_KOng_yEGKorxPS2da1-14">
          <mxGeometry x="1" width="20" height="20" relative="1" as="geometry">
            <mxPoint x="-27" y="7" as="offset" />
          </mxGeometry>
        </mxCell>
        <mxCell id="e_KOng_yEGKorxPS2da1-38" value="JPA" style="text;align=center;fontStyle=1;verticalAlign=middle;spacingLeft=3;spacingRight=3;strokeColor=none;rotatable=0;points=[[0,0.5],[1,0.5]];portConstraint=eastwest;html=1;" vertex="1" parent="e_KOng_yEGKorxPS2da1-40">
          <mxGeometry width="40" height="26" as="geometry" />
        </mxCell>
        <mxCell id="e_KOng_yEGKorxPS2da1-111" value="" style="group;rotation=-90;" vertex="1" connectable="0" parent="e_KOng_yEGKorxPS2da1-40">
          <mxGeometry x="42.25" y="85.75" width="28" height="11.5" as="geometry" />
        </mxCell>
        <mxCell id="e_KOng_yEGKorxPS2da1-109" value="" style="rounded=0;orthogonalLoop=1;jettySize=auto;html=1;endArrow=halfCircle;endFill=0;endSize=6;strokeWidth=1;sketch=0;fontSize=12;curved=1;" edge="1" target="e_KOng_yEGKorxPS2da1-110" parent="e_KOng_yEGKorxPS2da1-111">
          <mxGeometry relative="1" as="geometry">
            <mxPoint x="14.680000000000001" y="-4.6" as="sourcePoint" />
          </mxGeometry>
        </mxCell>
        <mxCell id="e_KOng_yEGKorxPS2da1-110" value="" style="ellipse;whiteSpace=wrap;html=1;align=center;aspect=fixed;fillColor=none;strokeColor=none;resizable=0;perimeter=centerPerimeter;rotatable=0;allowArrows=0;points=[];outlineConnect=1;rotation=-90;" vertex="1" parent="e_KOng_yEGKorxPS2da1-111">
          <mxGeometry x="9.080000000000002" y="12.649999999999999" width="10" height="10" as="geometry" />
        </mxCell>
        <mxCell id="e_KOng_yEGKorxPS2da1-41" value="" style="rounded=0;orthogonalLoop=1;jettySize=auto;html=1;endArrow=halfCircle;endFill=0;endSize=6;strokeWidth=1;sketch=0;exitX=0;exitY=0.75;exitDx=0;exitDy=0;" edge="1" parent="1" source="e_KOng_yEGKorxPS2da1-27">
          <mxGeometry relative="1" as="geometry">
            <mxPoint x="90" y="770" as="sourcePoint" />
            <mxPoint x="70" y="490" as="targetPoint" />
            <Array as="points" />
          </mxGeometry>
        </mxCell>
        <mxCell id="e_KOng_yEGKorxPS2da1-42" value="" style="rounded=0;orthogonalLoop=1;jettySize=auto;html=1;endArrow=oval;endFill=0;sketch=0;sourcePerimeterSpacing=0;targetPerimeterSpacing=0;endSize=10;exitX=0.014;exitY=0.6;exitDx=0;exitDy=0;exitPerimeter=0;" edge="1" parent="1" source="e_KOng_yEGKorxPS2da1-14">
          <mxGeometry relative="1" as="geometry">
            <mxPoint x="67" y="570" as="sourcePoint" />
            <mxPoint x="70" y="490" as="targetPoint" />
            <Array as="points">
              <mxPoint x="70" y="578" />
            </Array>
          </mxGeometry>
        </mxCell>
        <mxCell id="e_KOng_yEGKorxPS2da1-45" value="" style="rounded=0;orthogonalLoop=1;jettySize=auto;html=1;endArrow=oval;endFill=0;sketch=0;sourcePerimeterSpacing=0;targetPerimeterSpacing=0;endSize=10;exitX=1;exitY=0.25;exitDx=0;exitDy=0;" edge="1" parent="1">
          <mxGeometry relative="1" as="geometry">
            <mxPoint x="380" y="92" as="sourcePoint" />
            <mxPoint x="410" y="92" as="targetPoint" />
          </mxGeometry>
        </mxCell>
        <mxCell id="e_KOng_yEGKorxPS2da1-46" value="" style="ellipse;whiteSpace=wrap;html=1;align=center;aspect=fixed;fillColor=none;strokeColor=none;resizable=0;perimeter=centerPerimeter;rotatable=0;allowArrows=0;points=[];outlineConnect=1;" vertex="1" parent="1">
          <mxGeometry x="405" y="100" width="10" height="10" as="geometry" />
        </mxCell>
        <mxCell id="e_KOng_yEGKorxPS2da1-61" value="" style="group" vertex="1" connectable="0" parent="1">
          <mxGeometry x="92" y="270" width="180" height="40" as="geometry" />
        </mxCell>
        <mxCell id="e_KOng_yEGKorxPS2da1-62" value="" style="html=1;dropTarget=0;whiteSpace=wrap;" vertex="1" parent="e_KOng_yEGKorxPS2da1-61">
          <mxGeometry width="180" height="40" as="geometry" />
        </mxCell>
        <mxCell id="e_KOng_yEGKorxPS2da1-63" value="" style="shape=module;jettyWidth=8;jettyHeight=4;" vertex="1" parent="e_KOng_yEGKorxPS2da1-62">
          <mxGeometry x="1" width="20" height="20" relative="1" as="geometry">
            <mxPoint x="-27" y="7" as="offset" />
          </mxGeometry>
        </mxCell>
        <mxCell id="e_KOng_yEGKorxPS2da1-64" value="&lt;span style=&quot;text-align: left;&quot;&gt;GameService&lt;/span&gt;" style="text;html=1;align=center;verticalAlign=middle;whiteSpace=wrap;rounded=0;" vertex="1" parent="e_KOng_yEGKorxPS2da1-61">
          <mxGeometry width="130" height="30" as="geometry" />
        </mxCell>
        <mxCell id="e_KOng_yEGKorxPS2da1-65" value="G" style="group" vertex="1" connectable="0" parent="1">
          <mxGeometry x="220" y="210" width="180" height="40" as="geometry" />
        </mxCell>
        <mxCell id="e_KOng_yEGKorxPS2da1-66" value="" style="html=1;dropTarget=0;whiteSpace=wrap;" vertex="1" parent="e_KOng_yEGKorxPS2da1-65">
          <mxGeometry width="180" height="40" as="geometry" />
        </mxCell>
        <mxCell id="e_KOng_yEGKorxPS2da1-67" value="" style="shape=module;jettyWidth=8;jettyHeight=4;" vertex="1" parent="e_KOng_yEGKorxPS2da1-66">
          <mxGeometry x="1" width="20" height="20" relative="1" as="geometry">
            <mxPoint x="-27" y="7" as="offset" />
          </mxGeometry>
        </mxCell>
        <mxCell id="e_KOng_yEGKorxPS2da1-68" value="&lt;span style=&quot;text-align: left;&quot;&gt;GameAPI(REST)&lt;/span&gt;" style="text;html=1;align=center;verticalAlign=middle;whiteSpace=wrap;rounded=0;" vertex="1" parent="e_KOng_yEGKorxPS2da1-65">
          <mxGeometry x="10" width="120" height="30" as="geometry" />
        </mxCell>
        <mxCell id="e_KOng_yEGKorxPS2da1-69" value="" style="ellipse;whiteSpace=wrap;html=1;align=center;aspect=fixed;fillColor=none;strokeColor=none;resizable=0;perimeter=centerPerimeter;rotatable=0;allowArrows=0;points=[];outlineConnect=1;" vertex="1" parent="1">
          <mxGeometry x="185" y="240" width="10" height="10" as="geometry" />
        </mxCell>
        <mxCell id="e_KOng_yEGKorxPS2da1-70" value="" style="rounded=0;orthogonalLoop=1;jettySize=auto;html=1;endArrow=halfCircle;endFill=0;endSize=6;strokeWidth=1;sketch=0;exitX=0;exitY=0.25;exitDx=0;exitDy=0;" edge="1" source="e_KOng_yEGKorxPS2da1-66" target="e_KOng_yEGKorxPS2da1-69" parent="1">
          <mxGeometry relative="1" as="geometry">
            <mxPoint x="390" y="375" as="sourcePoint" />
            <Array as="points">
              <mxPoint x="190" y="220" />
            </Array>
          </mxGeometry>
        </mxCell>
        <mxCell id="e_KOng_yEGKorxPS2da1-71" value="" style="rounded=0;orthogonalLoop=1;jettySize=auto;html=1;endArrow=oval;endFill=0;sketch=0;sourcePerimeterSpacing=0;targetPerimeterSpacing=0;endSize=10;exitX=0.75;exitY=0;exitDx=0;exitDy=0;entryX=0.58;entryY=1.36;entryDx=0;entryDy=0;entryPerimeter=0;" edge="1" source="e_KOng_yEGKorxPS2da1-64" target="e_KOng_yEGKorxPS2da1-69" parent="1">
          <mxGeometry relative="1" as="geometry">
            <mxPoint x="350" y="375" as="sourcePoint" />
            <mxPoint x="220" y="240" as="targetPoint" />
          </mxGeometry>
        </mxCell>
        <mxCell id="e_KOng_yEGKorxPS2da1-72" value="" style="rounded=0;orthogonalLoop=1;jettySize=auto;html=1;endArrow=oval;endFill=0;sketch=0;sourcePerimeterSpacing=0;targetPerimeterSpacing=0;endSize=10;exitX=1;exitY=0.25;exitDx=0;exitDy=0;" edge="1" parent="1">
          <mxGeometry relative="1" as="geometry">
            <mxPoint x="400" y="222" as="sourcePoint" />
            <mxPoint x="430" y="222" as="targetPoint" />
          </mxGeometry>
        </mxCell>
        <mxCell id="e_KOng_yEGKorxPS2da1-73" value="" style="rounded=0;orthogonalLoop=1;jettySize=auto;html=1;endArrow=halfCircle;endFill=0;endSize=6;strokeWidth=1;sketch=0;exitX=0;exitY=1;exitDx=0;exitDy=0;" edge="1" source="e_KOng_yEGKorxPS2da1-62" parent="1">
          <mxGeometry relative="1" as="geometry">
            <mxPoint x="92" y="110" as="sourcePoint" />
            <mxPoint x="90" y="490" as="targetPoint" />
            <Array as="points" />
          </mxGeometry>
        </mxCell>
        <mxCell id="e_KOng_yEGKorxPS2da1-74" value="" style="rounded=0;orthogonalLoop=1;jettySize=auto;html=1;endArrow=oval;endFill=0;sketch=0;sourcePerimeterSpacing=0;targetPerimeterSpacing=0;endSize=10;exitX=0;exitY=0;exitDx=0;exitDy=0;" edge="1" parent="1" source="e_KOng_yEGKorxPS2da1-14">
          <mxGeometry relative="1" as="geometry">
            <mxPoint x="100" y="780" as="sourcePoint" />
            <mxPoint x="90" y="490" as="targetPoint" />
            <Array as="points" />
          </mxGeometry>
        </mxCell>
        <mxCell id="e_KOng_yEGKorxPS2da1-75" value="" style="group" vertex="1" connectable="0" parent="1">
          <mxGeometry x="130" y="430" width="150" height="50" as="geometry" />
        </mxCell>
        <mxCell id="e_KOng_yEGKorxPS2da1-76" value="" style="html=1;dropTarget=0;whiteSpace=wrap;" vertex="1" parent="e_KOng_yEGKorxPS2da1-75">
          <mxGeometry width="150" height="50" as="geometry" />
        </mxCell>
        <mxCell id="e_KOng_yEGKorxPS2da1-77" value="" style="shape=module;jettyWidth=8;jettyHeight=4;" vertex="1" parent="e_KOng_yEGKorxPS2da1-76">
          <mxGeometry x="1" width="20" height="20" relative="1" as="geometry">
            <mxPoint x="-27" y="7" as="offset" />
          </mxGeometry>
        </mxCell>
        <mxCell id="e_KOng_yEGKorxPS2da1-78" value="Thymeleaf&lt;div&gt;Template Engine&lt;/div&gt;" style="text;align=left;fontStyle=1;verticalAlign=middle;spacingLeft=3;spacingRight=3;strokeColor=none;rotatable=0;points=[[0,0.5],[1,0.5]];portConstraint=eastwest;html=1;" vertex="1" parent="e_KOng_yEGKorxPS2da1-75">
          <mxGeometry y="16.880000000000003" width="40" height="16.25" as="geometry" />
        </mxCell>
        <mxCell id="e_KOng_yEGKorxPS2da1-79" value="" style="rounded=0;orthogonalLoop=1;jettySize=auto;html=1;endArrow=oval;endFill=0;sketch=0;sourcePerimeterSpacing=0;targetPerimeterSpacing=0;endSize=10;exitX=0;exitY=0;exitDx=0;exitDy=0;" edge="1" parent="1" source="e_KOng_yEGKorxPS2da1-76">
          <mxGeometry relative="1" as="geometry">
            <mxPoint x="130" y="660" as="sourcePoint" />
            <mxPoint x="130" y="380" as="targetPoint" />
            <Array as="points" />
          </mxGeometry>
        </mxCell>
        <mxCell id="e_KOng_yEGKorxPS2da1-80" value="" style="rounded=0;orthogonalLoop=1;jettySize=auto;html=1;endArrow=halfCircle;endFill=0;endSize=6;strokeWidth=1;sketch=0;fontSize=12;curved=1;exitX=0.207;exitY=1;exitDx=0;exitDy=0;exitPerimeter=0;" edge="1" parent="1" source="e_KOng_yEGKorxPS2da1-62">
          <mxGeometry relative="1" as="geometry">
            <mxPoint x="130" y="320" as="sourcePoint" />
            <mxPoint x="130" y="380" as="targetPoint" />
          </mxGeometry>
        </mxCell>
        <mxCell id="e_KOng_yEGKorxPS2da1-81" value="" style="ellipse;whiteSpace=wrap;html=1;align=center;aspect=fixed;fillColor=none;strokeColor=none;resizable=0;perimeter=centerPerimeter;rotatable=0;allowArrows=0;points=[];outlineConnect=1;" vertex="1" parent="1">
          <mxGeometry x="470" y="490" width="10" height="10" as="geometry" />
        </mxCell>
        <mxCell id="e_KOng_yEGKorxPS2da1-86" value="" style="html=1;dropTarget=0;whiteSpace=wrap;" vertex="1" parent="1">
          <mxGeometry x="49" y="818" width="188" height="50" as="geometry" />
        </mxCell>
        <mxCell id="e_KOng_yEGKorxPS2da1-87" value="" style="shape=module;jettyWidth=8;jettyHeight=4;" vertex="1" parent="e_KOng_yEGKorxPS2da1-86">
          <mxGeometry x="1" width="20" height="20" relative="1" as="geometry">
            <mxPoint x="-27" y="7" as="offset" />
          </mxGeometry>
        </mxCell>
        <mxCell id="e_KOng_yEGKorxPS2da1-88" value="MySQL DB" style="text;html=1;align=left;verticalAlign=middle;whiteSpace=wrap;rounded=0;" vertex="1" parent="1">
          <mxGeometry x="54" y="816" width="78" height="30" as="geometry" />
        </mxCell>
        <mxCell id="e_KOng_yEGKorxPS2da1-96" value="" style="group;rotation=90;" vertex="1" connectable="0" parent="1">
          <mxGeometry x="120" y="706" width="60" height="30" as="geometry" />
        </mxCell>
        <mxCell id="e_KOng_yEGKorxPS2da1-93" value="" style="html=1;rounded=0;rotation=90;" vertex="1" parent="e_KOng_yEGKorxPS2da1-96">
          <mxGeometry x="15" y="-15" width="30" height="30" as="geometry" />
        </mxCell>
        <mxCell id="e_KOng_yEGKorxPS2da1-94" value="" style="endArrow=none;html=1;rounded=0;align=center;verticalAlign=top;endFill=0;labelBackgroundColor=none;endSize=2;" edge="1" source="e_KOng_yEGKorxPS2da1-93" target="e_KOng_yEGKorxPS2da1-95" parent="e_KOng_yEGKorxPS2da1-96">
          <mxGeometry relative="1" as="geometry" />
        </mxCell>
        <mxCell id="e_KOng_yEGKorxPS2da1-95" value="" style="shape=requiredInterface;html=1;fontSize=11;align=center;fillColor=none;points=[];aspect=fixed;resizable=0;verticalAlign=bottom;labelPosition=center;verticalLabelPosition=top;flipH=1;rotation=90;" vertex="1" parent="e_KOng_yEGKorxPS2da1-96">
          <mxGeometry x="28" y="38" width="5" height="10" as="geometry" />
        </mxCell>
        <mxCell id="e_KOng_yEGKorxPS2da1-108" value="" style="group;rotation=-90;" vertex="1" connectable="0" parent="1">
          <mxGeometry x="120" y="789" width="60" height="30" as="geometry" />
        </mxCell>
        <mxCell id="e_KOng_yEGKorxPS2da1-105" value="" style="html=1;rounded=0;rotation=-90;" vertex="1" parent="e_KOng_yEGKorxPS2da1-108">
          <mxGeometry x="15" y="15" width="30" height="30" as="geometry" />
        </mxCell>
        <mxCell id="e_KOng_yEGKorxPS2da1-106" value="" style="endArrow=none;html=1;rounded=0;align=center;verticalAlign=top;endFill=0;labelBackgroundColor=none;endSize=2;" edge="1" source="e_KOng_yEGKorxPS2da1-105" target="e_KOng_yEGKorxPS2da1-107" parent="e_KOng_yEGKorxPS2da1-108">
          <mxGeometry relative="1" as="geometry" />
        </mxCell>
        <mxCell id="e_KOng_yEGKorxPS2da1-107" value="" style="ellipse;html=1;fontSize=11;align=center;fillColor=none;points=[];aspect=fixed;resizable=0;verticalAlign=bottom;labelPosition=center;verticalLabelPosition=top;flipH=1;rotation=-90;" vertex="1" parent="e_KOng_yEGKorxPS2da1-108">
          <mxGeometry x="26" y="-15" width="8" height="8" as="geometry" />
        </mxCell>
        <mxCell id="e_KOng_yEGKorxPS2da1-112" value="&amp;lt;&amp;lt;delegate&amp;gt;&amp;gt;" style="html=1;verticalAlign=top;labelBackgroundColor=none;endArrow=open;endFill=0;rounded=0;entryX=0;entryY=0.5;entryDx=0;entryDy=0;exitX=0.36;exitY=0.127;exitDx=0;exitDy=0;exitPerimeter=0;" edge="1" parent="1" source="e_KOng_yEGKorxPS2da1-110" target="e_KOng_yEGKorxPS2da1-93">
          <mxGeometry x="-0.3563" y="42" width="160" relative="1" as="geometry">
            <mxPoint x="170" y="640" as="sourcePoint" />
            <mxPoint x="330" y="640" as="targetPoint" />
            <mxPoint as="offset" />
          </mxGeometry>
        </mxCell>
        <mxCell id="e_KOng_yEGKorxPS2da1-117" value="" style="group" vertex="1" connectable="0" parent="1">
          <mxGeometry x="280" y="450" width="25" height="10" as="geometry" />
        </mxCell>
        <mxCell id="e_KOng_yEGKorxPS2da1-115" value="" style="rounded=0;orthogonalLoop=1;jettySize=auto;html=1;endArrow=oval;endFill=0;sketch=0;sourcePerimeterSpacing=0;targetPerimeterSpacing=0;endSize=10;" edge="1" target="e_KOng_yEGKorxPS2da1-116" parent="e_KOng_yEGKorxPS2da1-117">
          <mxGeometry relative="1" as="geometry">
            <mxPoint y="5" as="sourcePoint" />
          </mxGeometry>
        </mxCell>
        <mxCell id="e_KOng_yEGKorxPS2da1-116" value="" style="ellipse;whiteSpace=wrap;html=1;align=center;aspect=fixed;fillColor=none;strokeColor=none;resizable=0;perimeter=centerPerimeter;rotatable=0;allowArrows=0;points=[];outlineConnect=1;" vertex="1" parent="e_KOng_yEGKorxPS2da1-117">
          <mxGeometry x="15" width="10" height="10" as="geometry" />
        </mxCell>
        <mxCell id="e_KOng_yEGKorxPS2da1-121" value="" style="html=1;rounded=0;" vertex="1" parent="1">
          <mxGeometry x="465" y="130" width="30" height="30" as="geometry" />
        </mxCell>
        <mxCell id="e_KOng_yEGKorxPS2da1-122" value="" style="endArrow=none;html=1;rounded=0;align=center;verticalAlign=top;endFill=0;labelBackgroundColor=none;endSize=2;" edge="1" source="e_KOng_yEGKorxPS2da1-121" target="e_KOng_yEGKorxPS2da1-123" parent="1">
          <mxGeometry relative="1" as="geometry" />
        </mxCell>
        <mxCell id="e_KOng_yEGKorxPS2da1-123" value="" style="ellipse;html=1;fontSize=11;align=center;fillColor=none;points=[];aspect=fixed;resizable=0;verticalAlign=bottom;labelPosition=center;verticalLabelPosition=top;flipH=1;" vertex="1" parent="1">
          <mxGeometry x="517" y="141" width="8" height="8" as="geometry" />
        </mxCell>
        <mxCell id="e_KOng_yEGKorxPS2da1-124" value="" style="html=1;rounded=0;" vertex="1" parent="1">
          <mxGeometry x="465" y="275" width="30" height="30" as="geometry" />
        </mxCell>
        <mxCell id="e_KOng_yEGKorxPS2da1-125" value="" style="endArrow=none;html=1;rounded=0;align=center;verticalAlign=top;endFill=0;labelBackgroundColor=none;endSize=2;" edge="1" source="e_KOng_yEGKorxPS2da1-124" target="e_KOng_yEGKorxPS2da1-126" parent="1">
          <mxGeometry relative="1" as="geometry" />
        </mxCell>
        <mxCell id="e_KOng_yEGKorxPS2da1-126" value="" style="ellipse;html=1;fontSize=11;align=center;fillColor=none;points=[];aspect=fixed;resizable=0;verticalAlign=bottom;labelPosition=center;verticalLabelPosition=top;flipH=1;" vertex="1" parent="1">
          <mxGeometry x="512" y="286" width="8" height="8" as="geometry" />
        </mxCell>
        <mxCell id="e_KOng_yEGKorxPS2da1-132" value="" style="html=1;rounded=0;" vertex="1" parent="1">
          <mxGeometry x="465" y="410" width="30" height="30" as="geometry" />
        </mxCell>
        <mxCell id="e_KOng_yEGKorxPS2da1-133" value="" style="endArrow=none;html=1;rounded=0;align=center;verticalAlign=top;endFill=0;labelBackgroundColor=none;endSize=2;" edge="1" source="e_KOng_yEGKorxPS2da1-132" target="e_KOng_yEGKorxPS2da1-134" parent="1">
          <mxGeometry relative="1" as="geometry" />
        </mxCell>
        <mxCell id="e_KOng_yEGKorxPS2da1-134" value="" style="ellipse;html=1;fontSize=11;align=center;fillColor=none;points=[];aspect=fixed;resizable=0;verticalAlign=bottom;labelPosition=center;verticalLabelPosition=top;flipH=1;" vertex="1" parent="1">
          <mxGeometry x="517" y="421" width="8" height="8" as="geometry" />
        </mxCell>
        <mxCell id="e_KOng_yEGKorxPS2da1-135" value="&amp;lt;&amp;lt;delegate&amp;gt;&amp;gt;" style="html=1;verticalAlign=top;labelBackgroundColor=none;endArrow=open;endFill=0;rounded=0;entryX=1.26;entryY=0.56;entryDx=0;entryDy=0;exitX=0;exitY=0.5;exitDx=0;exitDy=0;entryPerimeter=0;" edge="1" parent="1" source="e_KOng_yEGKorxPS2da1-132" target="e_KOng_yEGKorxPS2da1-116">
          <mxGeometry x="0.0293" width="160" relative="1" as="geometry">
            <mxPoint x="157" y="643" as="sourcePoint" />
            <mxPoint x="160" y="701" as="targetPoint" />
            <mxPoint as="offset" />
          </mxGeometry>
        </mxCell>
        <mxCell id="e_KOng_yEGKorxPS2da1-136" value="&amp;lt;&amp;lt;delegate&amp;gt;&amp;gt;" style="html=1;verticalAlign=top;labelBackgroundColor=none;endArrow=open;endFill=0;rounded=0;exitX=0;exitY=0.5;exitDx=0;exitDy=0;" edge="1" parent="1">
          <mxGeometry x="-0.427" y="35" width="160" relative="1" as="geometry">
            <mxPoint x="470" y="275" as="sourcePoint" />
            <mxPoint x="430" y="220" as="targetPoint" />
            <mxPoint x="-1" as="offset" />
          </mxGeometry>
        </mxCell>
        <mxCell id="e_KOng_yEGKorxPS2da1-137" value="&amp;lt;&amp;lt;delegate&amp;gt;&amp;gt;" style="html=1;verticalAlign=top;labelBackgroundColor=none;endArrow=open;endFill=0;rounded=0;exitX=0;exitY=0;exitDx=0;exitDy=0;" edge="1" parent="1" source="e_KOng_yEGKorxPS2da1-121">
          <mxGeometry x="0.2865" y="18" width="160" relative="1" as="geometry">
            <mxPoint x="480" y="285" as="sourcePoint" />
            <mxPoint x="410" y="90" as="targetPoint" />
            <mxPoint as="offset" />
          </mxGeometry>
        </mxCell>
        <mxCell id="e_KOng_yEGKorxPS2da1-165" value="" style="group" vertex="1" connectable="0" parent="1">
          <mxGeometry x="590" y="195" width="230" height="200" as="geometry" />
        </mxCell>
        <mxCell id="e_KOng_yEGKorxPS2da1-142" value="" style="group;align=left;" vertex="1" connectable="0" parent="e_KOng_yEGKorxPS2da1-165">
          <mxGeometry x="20" width="210" height="200" as="geometry" />
        </mxCell>
        <mxCell id="e_KOng_yEGKorxPS2da1-139" value="" style="html=1;dropTarget=0;whiteSpace=wrap;" vertex="1" parent="e_KOng_yEGKorxPS2da1-142">
          <mxGeometry width="210" height="200" as="geometry" />
        </mxCell>
        <mxCell id="e_KOng_yEGKorxPS2da1-140" value="" style="shape=module;jettyWidth=8;jettyHeight=4;" vertex="1" parent="e_KOng_yEGKorxPS2da1-139">
          <mxGeometry x="1" width="20" height="20" relative="1" as="geometry">
            <mxPoint x="-27" y="7" as="offset" />
          </mxGeometry>
        </mxCell>
        <mxCell id="e_KOng_yEGKorxPS2da1-141" value="Clients(Angular or React)" style="text;align=center;fontStyle=1;verticalAlign=middle;spacingLeft=3;spacingRight=3;strokeColor=none;rotatable=0;points=[[0,0.5],[1,0.5]];portConstraint=eastwest;html=1;" vertex="1" parent="e_KOng_yEGKorxPS2da1-142">
          <mxGeometry x="29.333333333333336" y="2.5" width="93.33333333333334" height="21.666666666666668" as="geometry" />
        </mxCell>
        <mxCell id="e_KOng_yEGKorxPS2da1-151" value="" style="group;align=left;" vertex="1" connectable="0" parent="e_KOng_yEGKorxPS2da1-142">
          <mxGeometry x="88.06451612903227" y="33.333333333333336" width="121.93548387096776" height="25" as="geometry" />
        </mxCell>
        <mxCell id="e_KOng_yEGKorxPS2da1-143" value="Login" style="html=1;dropTarget=0;whiteSpace=wrap;align=left;" vertex="1" parent="e_KOng_yEGKorxPS2da1-151">
          <mxGeometry x="25.161290322580648" width="96.7741935483871" height="25" as="geometry" />
        </mxCell>
        <mxCell id="e_KOng_yEGKorxPS2da1-144" value="" style="shape=module;jettyWidth=8;jettyHeight=4;" vertex="1" parent="e_KOng_yEGKorxPS2da1-143">
          <mxGeometry x="1" width="20" height="20" relative="1" as="geometry">
            <mxPoint x="-27" y="7" as="offset" />
          </mxGeometry>
        </mxCell>
        <mxCell id="e_KOng_yEGKorxPS2da1-149" value="" style="rounded=0;orthogonalLoop=1;jettySize=auto;html=1;endArrow=halfCircle;endFill=0;endSize=6;strokeWidth=1;sketch=0;fontSize=12;curved=1;" edge="1" target="e_KOng_yEGKorxPS2da1-150" parent="e_KOng_yEGKorxPS2da1-151">
          <mxGeometry relative="1" as="geometry">
            <mxPoint x="24.193548387096776" y="12.5" as="sourcePoint" />
          </mxGeometry>
        </mxCell>
        <mxCell id="e_KOng_yEGKorxPS2da1-150" value="" style="ellipse;whiteSpace=wrap;html=1;align=center;aspect=fixed;fillColor=none;strokeColor=none;resizable=0;perimeter=centerPerimeter;rotatable=0;allowArrows=0;points=[];outlineConnect=1;" vertex="1" parent="e_KOng_yEGKorxPS2da1-151">
          <mxGeometry y="8.333333333333334" width="10" height="10" as="geometry" />
        </mxCell>
        <mxCell id="e_KOng_yEGKorxPS2da1-152" value="" style="group" vertex="1" connectable="0" parent="e_KOng_yEGKorxPS2da1-142">
          <mxGeometry x="88.06451612903227" y="75" width="121.93548387096776" height="25" as="geometry" />
        </mxCell>
        <mxCell id="e_KOng_yEGKorxPS2da1-153" value="Lobby" style="html=1;dropTarget=0;whiteSpace=wrap;align=left;" vertex="1" parent="e_KOng_yEGKorxPS2da1-152">
          <mxGeometry x="25.161290322580648" width="96.7741935483871" height="25" as="geometry" />
        </mxCell>
        <mxCell id="e_KOng_yEGKorxPS2da1-154" value="" style="shape=module;jettyWidth=8;jettyHeight=4;" vertex="1" parent="e_KOng_yEGKorxPS2da1-153">
          <mxGeometry x="1" width="20" height="20" relative="1" as="geometry">
            <mxPoint x="-27" y="7" as="offset" />
          </mxGeometry>
        </mxCell>
        <mxCell id="e_KOng_yEGKorxPS2da1-155" value="" style="rounded=0;orthogonalLoop=1;jettySize=auto;html=1;endArrow=halfCircle;endFill=0;endSize=6;strokeWidth=1;sketch=0;fontSize=12;curved=1;" edge="1" parent="e_KOng_yEGKorxPS2da1-152" target="e_KOng_yEGKorxPS2da1-156">
          <mxGeometry relative="1" as="geometry">
            <mxPoint x="24.193548387096776" y="12.5" as="sourcePoint" />
          </mxGeometry>
        </mxCell>
        <mxCell id="e_KOng_yEGKorxPS2da1-156" value="" style="ellipse;whiteSpace=wrap;html=1;align=center;aspect=fixed;fillColor=none;strokeColor=none;resizable=0;perimeter=centerPerimeter;rotatable=0;allowArrows=0;points=[];outlineConnect=1;" vertex="1" parent="e_KOng_yEGKorxPS2da1-152">
          <mxGeometry y="8.333333333333334" width="10" height="10" as="geometry" />
        </mxCell>
        <mxCell id="e_KOng_yEGKorxPS2da1-157" value="" style="group" vertex="1" connectable="0" parent="e_KOng_yEGKorxPS2da1-142">
          <mxGeometry x="88.06451612903227" y="116.66666666666667" width="121.93548387096776" height="25" as="geometry" />
        </mxCell>
        <mxCell id="e_KOng_yEGKorxPS2da1-158" value="Game UI" style="html=1;dropTarget=0;whiteSpace=wrap;align=left;" vertex="1" parent="e_KOng_yEGKorxPS2da1-157">
          <mxGeometry x="25.161290322580648" width="96.7741935483871" height="25" as="geometry" />
        </mxCell>
        <mxCell id="e_KOng_yEGKorxPS2da1-159" value="" style="shape=module;jettyWidth=8;jettyHeight=4;" vertex="1" parent="e_KOng_yEGKorxPS2da1-158">
          <mxGeometry x="1" width="20" height="20" relative="1" as="geometry">
            <mxPoint x="-27" y="7" as="offset" />
          </mxGeometry>
        </mxCell>
        <mxCell id="e_KOng_yEGKorxPS2da1-160" value="" style="rounded=0;orthogonalLoop=1;jettySize=auto;html=1;endArrow=halfCircle;endFill=0;endSize=6;strokeWidth=1;sketch=0;fontSize=12;curved=1;" edge="1" parent="e_KOng_yEGKorxPS2da1-157" target="e_KOng_yEGKorxPS2da1-161">
          <mxGeometry relative="1" as="geometry">
            <mxPoint x="24.193548387096776" y="12.5" as="sourcePoint" />
          </mxGeometry>
        </mxCell>
        <mxCell id="e_KOng_yEGKorxPS2da1-161" value="" style="ellipse;whiteSpace=wrap;html=1;align=center;aspect=fixed;fillColor=none;strokeColor=none;resizable=0;perimeter=centerPerimeter;rotatable=0;allowArrows=0;points=[];outlineConnect=1;" vertex="1" parent="e_KOng_yEGKorxPS2da1-157">
          <mxGeometry y="8.333333333333334" width="10" height="10" as="geometry" />
        </mxCell>
        <mxCell id="e_KOng_yEGKorxPS2da1-171" value="" style="html=1;rounded=0;rotation=-180;" vertex="1" parent="e_KOng_yEGKorxPS2da1-142">
          <mxGeometry x="-20" y="134" width="30" height="30" as="geometry" />
        </mxCell>
        <mxCell id="e_KOng_yEGKorxPS2da1-173" value="" style="html=1;rounded=0;rotation=-180;" vertex="1" parent="e_KOng_yEGKorxPS2da1-142">
          <mxGeometry x="-20" y="28.33" width="30" height="30" as="geometry" />
        </mxCell>
        <mxCell id="e_KOng_yEGKorxPS2da1-170" style="edgeStyle=orthogonalEdgeStyle;rounded=0;orthogonalLoop=1;jettySize=auto;html=1;entryX=-0.15;entryY=0.5;entryDx=0;entryDy=0;entryPerimeter=0;" edge="1" parent="1" source="e_KOng_yEGKorxPS2da1-166" target="e_KOng_yEGKorxPS2da1-126">
          <mxGeometry relative="1" as="geometry" />
        </mxCell>
        <mxCell id="e_KOng_yEGKorxPS2da1-172" style="edgeStyle=orthogonalEdgeStyle;rounded=0;orthogonalLoop=1;jettySize=auto;html=1;entryX=-0.025;entryY=-0.075;entryDx=0;entryDy=0;entryPerimeter=0;" edge="1" parent="1">
          <mxGeometry relative="1" as="geometry">
            <mxPoint x="589.8" y="344.6" as="sourcePoint" />
            <mxPoint x="525" y="421" as="targetPoint" />
          </mxGeometry>
        </mxCell>
        <mxCell id="e_KOng_yEGKorxPS2da1-166" value="" style="html=1;rounded=0;rotation=-180;" vertex="1" parent="1">
          <mxGeometry x="591" y="275" width="30" height="30" as="geometry" />
        </mxCell>
        <mxCell id="e_KOng_yEGKorxPS2da1-167" value="" style="endArrow=none;html=1;rounded=0;align=center;verticalAlign=top;endFill=0;labelBackgroundColor=none;endSize=2;" edge="1" source="e_KOng_yEGKorxPS2da1-166" target="e_KOng_yEGKorxPS2da1-168" parent="1">
          <mxGeometry relative="1" as="geometry" />
        </mxCell>
        <mxCell id="e_KOng_yEGKorxPS2da1-168" value="" style="shape=requiredInterface;html=1;fontSize=11;align=center;fillColor=none;points=[];aspect=fixed;resizable=0;verticalAlign=bottom;labelPosition=center;verticalLabelPosition=top;flipH=1;rotation=-180;" vertex="1" parent="1">
          <mxGeometry x="561" y="285" width="5" height="10" as="geometry" />
        </mxCell>
        <mxCell id="e_KOng_yEGKorxPS2da1-178" value="" style="shape=requiredInterface;html=1;fontSize=11;align=center;fillColor=none;points=[];aspect=fixed;resizable=0;verticalAlign=bottom;labelPosition=center;verticalLabelPosition=top;flipH=1;rotation=-180;" vertex="1" parent="1">
          <mxGeometry x="562" y="340" width="5" height="10" as="geometry" />
        </mxCell>
        <mxCell id="e_KOng_yEGKorxPS2da1-179" value="" style="shape=requiredInterface;html=1;fontSize=11;align=center;fillColor=none;points=[];aspect=fixed;resizable=0;verticalAlign=bottom;labelPosition=center;verticalLabelPosition=top;flipH=1;rotation=-180;" vertex="1" parent="1">
          <mxGeometry x="561" y="233" width="5" height="10" as="geometry" />
        </mxCell>
        <mxCell id="e_KOng_yEGKorxPS2da1-174" style="edgeStyle=orthogonalEdgeStyle;rounded=0;orthogonalLoop=1;jettySize=auto;html=1;entryX=0.325;entryY=1.142;entryDx=0;entryDy=0;entryPerimeter=0;" edge="1" source="e_KOng_yEGKorxPS2da1-173" parent="1" target="e_KOng_yEGKorxPS2da1-123">
          <mxGeometry relative="1" as="geometry">
            <mxPoint x="520" y="238.32999999999998" as="targetPoint" />
          </mxGeometry>
        </mxCell>
        <mxCell id="e_KOng_yEGKorxPS2da1-180" style="edgeStyle=orthogonalEdgeStyle;rounded=0;orthogonalLoop=1;jettySize=auto;html=1;entryX=0.083;entryY=0.45;entryDx=0;entryDy=0;entryPerimeter=0;" edge="1" parent="1" target="e_KOng_yEGKorxPS2da1-107">
          <mxGeometry relative="1" as="geometry">
            <mxPoint x="150" y="721.066650390625" as="sourcePoint" />
            <mxPoint x="531" y="300" as="targetPoint" />
          </mxGeometry>
        </mxCell>
      </root>
    </mxGraphModel>
  </diagram>
</mxfile>
